<svg width="172" height="168" viewBox="0 0 172 168" fill="none" xmlns="http://www.w3.org/2000/svg">
<path d="M168.687 0.687499H146.75C146.75 0.687499 0.374976 147 0.187476 147.156V164.812C0.183298 165.224 0.261275 165.632 0.416841 166.013C0.572407 166.394 0.802436 166.74 1.09346 167.032C1.38447 167.323 1.73064 167.553 2.11166 167.708C2.49269 167.864 2.90093 167.942 3.31248 167.937H20.7812C20.9062 167.687 171.281 17.2812 171.281 17.2812C171.444 17.1189 171.622 16.9724 171.812 16.8437V3.8125C171.817 3.40096 171.739 2.99272 171.583 2.61169C171.428 2.23066 171.198 1.8845 170.906 1.59348C170.615 1.30246 170.269 1.07243 169.888 0.916864C169.507 0.761298 169.099 0.683321 168.687 0.687499ZM129.5 167.937H168.687C169.099 167.942 169.507 167.864 169.888 167.708C170.269 167.553 170.615 167.323 170.906 167.032C171.198 166.74 171.428 166.394 171.583 166.013C171.739 165.632 171.817 165.224 171.812 164.812V125.625C168.122 129.328 129.5 167.937 129.5 167.937ZM79.5 167.937H120.781C120.906 167.687 171.625 116.969 171.812 116.844V75.625L79.5 167.937ZM29.5 167.937H70.7812C70.9062 167.687 171.625 66.9688 171.812 66.8438V25.625L29.5 167.937ZM137.875 0.687499H96.75C90.6281 6.8125 0.374976 97 0.187476 97.1562V138.375L137.875 0.687499ZM87.875 0.687499H46.75C31.2413 16.1893 15.7205 31.6788 0.187476 47.1563V88.375L87.875 0.687499ZM37.875 0.687499H3.31248C2.90093 0.683321 2.49269 0.761298 2.11166 0.916864C1.73064 1.07243 1.38447 1.30246 1.09346 1.59348C0.802436 1.8845 0.572407 2.23066 0.416841 2.61169C0.261275 2.99272 0.183298 3.40096 0.187476 3.8125V38.375C4.14998 34.4063 37.875 0.687499 37.875 0.687499Z" fill="black"/>
</svg>
